<mxfile host="app.diagrams.net" modified="2023-05-07T09:15:26.213Z" agent="Mozilla/5.0 (Windows NT 10.0; Win64; x64) AppleWebKit/537.36 (KHTML, like Gecko) Chrome/112.0.0.0 Safari/537.36" etag="iFtHVcNa8w-V76H4daRU" version="21.2.9" type="github">
  <diagram name="Page-1" id="vv-bB8UND6x1yOVzy0g2">
    <mxGraphModel dx="1050" dy="573" grid="1" gridSize="10" guides="1" tooltips="1" connect="1" arrows="1" fold="1" page="1" pageScale="1" pageWidth="850" pageHeight="1100" math="0" shadow="0">
      <root>
        <mxCell id="0" />
        <mxCell id="1" parent="0" />
        <mxCell id="fvNiQkrtgF-xEhkCqe55-38" value="" style="ellipse;shape=cloud;whiteSpace=wrap;html=1;fontFamily=Times New Roman;fillColor=#f5f5f5;fontColor=#333333;strokeColor=#666666;" vertex="1" parent="1">
          <mxGeometry x="40" y="167.5" width="420" height="290" as="geometry" />
        </mxCell>
        <mxCell id="fvNiQkrtgF-xEhkCqe55-4" value="" style="rounded=0;whiteSpace=wrap;html=1;fontFamily=Times New Roman;fillColor=#e1d5e7;strokeColor=#9673a6;" vertex="1" parent="1">
          <mxGeometry x="120" y="520" width="540" height="460" as="geometry" />
        </mxCell>
        <mxCell id="fvNiQkrtgF-xEhkCqe55-16" value="" style="shape=process;whiteSpace=wrap;html=1;backgroundOutline=1;size=0.2222222222222222;fontFamily=Times New Roman;fillColor=#dae8fc;strokeColor=#6c8ebf;" vertex="1" parent="1">
          <mxGeometry x="470" y="32.5" width="270" height="127.5" as="geometry" />
        </mxCell>
        <mxCell id="fvNiQkrtgF-xEhkCqe55-17" value="&lt;font style=&quot;font-size: 16px;&quot;&gt;&lt;b&gt;Google&lt;br&gt;Apps&lt;br&gt;Script&lt;/b&gt;&lt;/font&gt;" style="text;html=1;strokeColor=none;fillColor=none;align=center;verticalAlign=middle;whiteSpace=wrap;rounded=0;fontFamily=Times New Roman;" vertex="1" parent="1">
          <mxGeometry x="680" y="81.25" width="60" height="30" as="geometry" />
        </mxCell>
        <mxCell id="fvNiQkrtgF-xEhkCqe55-18" value="&lt;font style=&quot;font-size: 16px;&quot;&gt;&lt;b&gt;Document&lt;br&gt;Google Docs&lt;/b&gt;&lt;/font&gt;" style="text;html=1;strokeColor=none;fillColor=none;align=center;verticalAlign=middle;whiteSpace=wrap;rounded=0;fontFamily=Times New Roman;" vertex="1" parent="1">
          <mxGeometry x="575" y="68.75" width="60" height="55" as="geometry" />
        </mxCell>
        <mxCell id="fvNiQkrtgF-xEhkCqe55-19" value="&lt;font style=&quot;font-size: 16px;&quot;&gt;&lt;b&gt;Service Workers&lt;br&gt;Google&lt;/b&gt;&lt;/font&gt;" style="text;html=1;strokeColor=none;fillColor=none;align=center;verticalAlign=middle;whiteSpace=wrap;rounded=0;fontFamily=Times New Roman;" vertex="1" parent="1">
          <mxGeometry x="470" y="81.25" width="60" height="30" as="geometry" />
        </mxCell>
        <mxCell id="fvNiQkrtgF-xEhkCqe55-29" value="&lt;b&gt;Utilizator&lt;/b&gt;" style="shape=umlActor;verticalLabelPosition=bottom;verticalAlign=top;html=1;outlineConnect=0;fontFamily=Times New Roman;" vertex="1" parent="1">
          <mxGeometry x="40" y="100" width="30" height="60" as="geometry" />
        </mxCell>
        <mxCell id="fvNiQkrtgF-xEhkCqe55-31" value="&lt;b&gt;Dictare&lt;/b&gt;" style="shape=callout;whiteSpace=wrap;html=1;perimeter=calloutPerimeter;rotation=15;size=30;position=0.57;base=10;fontFamily=Times New Roman;fillColor=#dae8fc;strokeColor=#6c8ebf;" vertex="1" parent="1">
          <mxGeometry x="50" y="47.5" width="70" height="50" as="geometry" />
        </mxCell>
        <mxCell id="fvNiQkrtgF-xEhkCqe55-34" value="" style="shape=parallelogram;perimeter=parallelogramPerimeter;whiteSpace=wrap;html=1;fixedSize=1;direction=west;fontFamily=Times New Roman;fillColor=#808080;" vertex="1" parent="1">
          <mxGeometry x="90" y="140" width="80" height="20" as="geometry" />
        </mxCell>
        <mxCell id="fvNiQkrtgF-xEhkCqe55-35" value="" style="rounded=0;whiteSpace=wrap;html=1;fontFamily=Times New Roman;strokeColor=#4D4D4D;fillColor=#666666;" vertex="1" parent="1">
          <mxGeometry x="110" y="100" width="60" height="40" as="geometry" />
        </mxCell>
        <mxCell id="fvNiQkrtgF-xEhkCqe55-46" value="&lt;font style=&quot;font-size: 18px;&quot;&gt;&lt;b&gt;Cloud&lt;br&gt;Internet&lt;/b&gt;&lt;/font&gt;" style="text;html=1;strokeColor=none;fillColor=none;align=center;verticalAlign=middle;whiteSpace=wrap;rounded=0;fontFamily=Times New Roman;" vertex="1" parent="1">
          <mxGeometry x="205" y="291.55" width="90" height="30" as="geometry" />
        </mxCell>
        <mxCell id="fvNiQkrtgF-xEhkCqe55-48" value="&lt;b style=&quot;font-size: 16px;&quot;&gt;Google Docs&lt;br&gt;API&lt;/b&gt;" style="ellipse;shape=cloud;whiteSpace=wrap;html=1;fontFamily=Times New Roman;rotation=30;fillColor=#f5f5f5;fontColor=#333333;strokeColor=#666666;" vertex="1" parent="1">
          <mxGeometry x="280" y="236.55" width="120" height="80" as="geometry" />
        </mxCell>
        <mxCell id="fvNiQkrtgF-xEhkCqe55-49" value="&lt;b style=&quot;font-size: 16px;&quot;&gt;Google Apps&lt;br&gt;API&lt;/b&gt;" style="ellipse;shape=cloud;whiteSpace=wrap;html=1;rotation=-45;fontFamily=Times New Roman;fillColor=#f5f5f5;fontColor=#333333;strokeColor=#666666;" vertex="1" parent="1">
          <mxGeometry x="94.18" y="231.55" width="140" height="90" as="geometry" />
        </mxCell>
        <mxCell id="fvNiQkrtgF-xEhkCqe55-50" value="&lt;font style=&quot;font-size: 16px;&quot;&gt;&lt;b&gt;Zevo&amp;nbsp;&lt;br&gt;API&lt;/b&gt;&lt;/font&gt;" style="ellipse;shape=cloud;whiteSpace=wrap;html=1;rotation=0;fontFamily=Times New Roman;fillColor=#f5f5f5;fontColor=#333333;strokeColor=#666666;" vertex="1" parent="1">
          <mxGeometry x="180" y="340" width="140" height="80" as="geometry" />
        </mxCell>
        <mxCell id="fvNiQkrtgF-xEhkCqe55-51" value="Plug-in DIctare" style="text;html=1;strokeColor=none;fillColor=none;align=center;verticalAlign=middle;whiteSpace=wrap;rounded=0;fontFamily=Times New Roman;" vertex="1" parent="1">
          <mxGeometry x="355" y="520" width="120" height="30" as="geometry" />
        </mxCell>
        <mxCell id="fvNiQkrtgF-xEhkCqe55-70" style="edgeStyle=orthogonalEdgeStyle;rounded=0;orthogonalLoop=1;jettySize=auto;html=1;exitX=1;exitY=0.5;exitDx=0;exitDy=0;entryX=0;entryY=0.5;entryDx=0;entryDy=0;fontFamily=Times New Roman;" edge="1" parent="1" source="fvNiQkrtgF-xEhkCqe55-58" target="fvNiQkrtgF-xEhkCqe55-59">
          <mxGeometry relative="1" as="geometry" />
        </mxCell>
        <mxCell id="fvNiQkrtgF-xEhkCqe55-58" value="Captare WAV Audio" style="rounded=1;whiteSpace=wrap;html=1;fontFamily=Times New Roman;fillColor=#fff2cc;strokeColor=#d6b656;" vertex="1" parent="1">
          <mxGeometry x="275" y="570" width="105" height="60" as="geometry" />
        </mxCell>
        <mxCell id="fvNiQkrtgF-xEhkCqe55-73" style="edgeStyle=orthogonalEdgeStyle;rounded=0;orthogonalLoop=1;jettySize=auto;html=1;exitX=1;exitY=0.5;exitDx=0;exitDy=0;entryX=0;entryY=0.5;entryDx=0;entryDy=0;fontFamily=Times New Roman;" edge="1" parent="1" source="fvNiQkrtgF-xEhkCqe55-59" target="fvNiQkrtgF-xEhkCqe55-68">
          <mxGeometry relative="1" as="geometry" />
        </mxCell>
        <mxCell id="fvNiQkrtgF-xEhkCqe55-127" style="edgeStyle=orthogonalEdgeStyle;rounded=0;orthogonalLoop=1;jettySize=auto;html=1;exitX=0.5;exitY=1;exitDx=0;exitDy=0;entryX=1;entryY=0;entryDx=0;entryDy=87.5;entryPerimeter=0;startArrow=block;startFill=0;shape=flexArrow;endSize=5;strokeWidth=1;targetPerimeterSpacing=0;startSize=5;fontFamily=Times New Roman;fillColor=#dae8fc;strokeColor=#6c8ebf;" edge="1" parent="1" source="fvNiQkrtgF-xEhkCqe55-59" target="fvNiQkrtgF-xEhkCqe55-105">
          <mxGeometry relative="1" as="geometry">
            <Array as="points">
              <mxPoint x="465" y="653" />
            </Array>
          </mxGeometry>
        </mxCell>
        <mxCell id="fvNiQkrtgF-xEhkCqe55-129" value="Verificare È™i &lt;br&gt;transmitere text" style="edgeLabel;html=1;align=center;verticalAlign=middle;resizable=0;points=[];fontFamily=Times New Roman;labelBackgroundColor=#CCE5FF;" vertex="1" connectable="0" parent="fvNiQkrtgF-xEhkCqe55-127">
          <mxGeometry x="-0.2564" y="3" relative="1" as="geometry">
            <mxPoint x="-35" y="-4" as="offset" />
          </mxGeometry>
        </mxCell>
        <mxCell id="fvNiQkrtgF-xEhkCqe55-59" value="Apel Zevo pentru&lt;br&gt;trasncirerea de vorbire&amp;nbsp;" style="rounded=1;whiteSpace=wrap;html=1;fontFamily=Times New Roman;fillColor=#dae8fc;strokeColor=#6c8ebf;" vertex="1" parent="1">
          <mxGeometry x="405" y="570" width="120" height="60" as="geometry" />
        </mxCell>
        <mxCell id="fvNiQkrtgF-xEhkCqe55-76" style="edgeStyle=orthogonalEdgeStyle;rounded=0;orthogonalLoop=1;jettySize=auto;html=1;exitX=0.5;exitY=1;exitDx=0;exitDy=0;entryX=0.5;entryY=0;entryDx=0;entryDy=0;fontFamily=Times New Roman;" edge="1" parent="1" source="fvNiQkrtgF-xEhkCqe55-68" target="fvNiQkrtgF-xEhkCqe55-75">
          <mxGeometry relative="1" as="geometry">
            <Array as="points">
              <mxPoint x="600" y="690" />
              <mxPoint x="350" y="690" />
            </Array>
          </mxGeometry>
        </mxCell>
        <mxCell id="fvNiQkrtgF-xEhkCqe55-79" value="true" style="edgeLabel;html=1;align=center;verticalAlign=middle;resizable=0;points=[];fontFamily=Times New Roman;fontSize=12;labelBackgroundColor=#CCE5FF;" vertex="1" connectable="0" parent="fvNiQkrtgF-xEhkCqe55-76">
          <mxGeometry x="0.1937" y="3" relative="1" as="geometry">
            <mxPoint x="64" y="-5" as="offset" />
          </mxGeometry>
        </mxCell>
        <mxCell id="fvNiQkrtgF-xEhkCqe55-68" value="S-a apelat &lt;br&gt;cu suces?" style="rhombus;whiteSpace=wrap;html=1;fontFamily=Times New Roman;fillColor=#ffe6cc;strokeColor=#d79b00;" vertex="1" parent="1">
          <mxGeometry x="550" y="560" width="100" height="80" as="geometry" />
        </mxCell>
        <mxCell id="fvNiQkrtgF-xEhkCqe55-118" style="edgeStyle=orthogonalEdgeStyle;rounded=0;orthogonalLoop=1;jettySize=auto;html=1;exitX=1;exitY=0;exitDx=0;exitDy=0;entryX=0;entryY=0.5;entryDx=0;entryDy=0;fontFamily=Times New Roman;" edge="1" parent="1" source="fvNiQkrtgF-xEhkCqe55-75" target="fvNiQkrtgF-xEhkCqe55-80">
          <mxGeometry relative="1" as="geometry">
            <Array as="points">
              <mxPoint x="385" y="758" />
              <mxPoint x="385" y="740" />
            </Array>
          </mxGeometry>
        </mxCell>
        <mxCell id="fvNiQkrtgF-xEhkCqe55-167" value="dictare" style="edgeLabel;html=1;align=center;verticalAlign=middle;resizable=0;points=[];labelBackgroundColor=#CCE5FF;" vertex="1" connectable="0" parent="fvNiQkrtgF-xEhkCqe55-118">
          <mxGeometry x="-0.0773" y="-4" relative="1" as="geometry">
            <mxPoint x="7" y="-5" as="offset" />
          </mxGeometry>
        </mxCell>
        <mxCell id="fvNiQkrtgF-xEhkCqe55-120" style="edgeStyle=orthogonalEdgeStyle;rounded=0;orthogonalLoop=1;jettySize=auto;html=1;exitX=1;exitY=1;exitDx=0;exitDy=0;entryX=0;entryY=0.5;entryDx=0;entryDy=0;fontFamily=Times New Roman;fillColor=#dae8fc;strokeColor=#000000;" edge="1" parent="1" source="fvNiQkrtgF-xEhkCqe55-75" target="fvNiQkrtgF-xEhkCqe55-82">
          <mxGeometry relative="1" as="geometry">
            <Array as="points">
              <mxPoint x="357" y="840" />
              <mxPoint x="385" y="840" />
              <mxPoint x="385" y="860" />
            </Array>
          </mxGeometry>
        </mxCell>
        <mxCell id="fvNiQkrtgF-xEhkCqe55-169" value="comandÄƒ" style="edgeLabel;html=1;align=center;verticalAlign=middle;resizable=0;points=[];labelBackgroundColor=#CCE5FF;" vertex="1" connectable="0" parent="fvNiQkrtgF-xEhkCqe55-120">
          <mxGeometry x="0.4662" y="3" relative="1" as="geometry">
            <mxPoint x="1" y="3" as="offset" />
          </mxGeometry>
        </mxCell>
        <mxCell id="fvNiQkrtgF-xEhkCqe55-75" value="S-a recepÈ›ionat &lt;br&gt;o comandÄƒ&lt;br&gt;&amp;nbsp;sau dictare?" style="rhombus;whiteSpace=wrap;html=1;fontFamily=Times New Roman;fillColor=#ffe6cc;strokeColor=#d79b00;" vertex="1" parent="1">
          <mxGeometry x="275" y="715" width="150" height="170" as="geometry" />
        </mxCell>
        <mxCell id="fvNiQkrtgF-xEhkCqe55-94" style="edgeStyle=orthogonalEdgeStyle;rounded=0;orthogonalLoop=1;jettySize=auto;html=1;exitX=1;exitY=0.5;exitDx=0;exitDy=0;entryX=0.5;entryY=0;entryDx=0;entryDy=0;fontFamily=Times New Roman;" edge="1" parent="1" source="fvNiQkrtgF-xEhkCqe55-80" target="fvNiQkrtgF-xEhkCqe55-93">
          <mxGeometry relative="1" as="geometry" />
        </mxCell>
        <mxCell id="fvNiQkrtgF-xEhkCqe55-128" style="edgeStyle=orthogonalEdgeStyle;rounded=0;orthogonalLoop=1;jettySize=auto;html=1;exitX=0.5;exitY=0;exitDx=0;exitDy=0;startArrow=classic;startFill=1;fontFamily=Times New Roman;" edge="1" parent="1" source="fvNiQkrtgF-xEhkCqe55-80" target="fvNiQkrtgF-xEhkCqe55-105">
          <mxGeometry relative="1" as="geometry">
            <Array as="points">
              <mxPoint x="500" y="670" />
            </Array>
          </mxGeometry>
        </mxCell>
        <mxCell id="fvNiQkrtgF-xEhkCqe55-80" value="Apel Google Docs&amp;nbsp;&lt;br&gt;pentru scrierea vorbirii Ã®n document" style="rounded=1;whiteSpace=wrap;html=1;fontFamily=Times New Roman;fillColor=#dae8fc;strokeColor=#6c8ebf;" vertex="1" parent="1">
          <mxGeometry x="440" y="710" width="120" height="60" as="geometry" />
        </mxCell>
        <mxCell id="fvNiQkrtgF-xEhkCqe55-102" style="edgeStyle=orthogonalEdgeStyle;rounded=0;orthogonalLoop=1;jettySize=auto;html=1;exitX=1;exitY=0.5;exitDx=0;exitDy=0;entryX=0.5;entryY=1;entryDx=0;entryDy=0;fontFamily=Times New Roman;" edge="1" parent="1" source="fvNiQkrtgF-xEhkCqe55-82" target="fvNiQkrtgF-xEhkCqe55-93">
          <mxGeometry relative="1" as="geometry" />
        </mxCell>
        <mxCell id="fvNiQkrtgF-xEhkCqe55-126" style="edgeStyle=orthogonalEdgeStyle;rounded=0;orthogonalLoop=1;jettySize=auto;html=1;entryX=1;entryY=1;entryDx=0;entryDy=-15;entryPerimeter=0;startArrow=classic;startFill=1;fontFamily=Times New Roman;" edge="1" parent="1" source="fvNiQkrtgF-xEhkCqe55-82" target="fvNiQkrtgF-xEhkCqe55-105">
          <mxGeometry relative="1" as="geometry">
            <Array as="points">
              <mxPoint x="485" y="910" />
              <mxPoint x="270" y="910" />
              <mxPoint x="270" y="870" />
            </Array>
          </mxGeometry>
        </mxCell>
        <mxCell id="fvNiQkrtgF-xEhkCqe55-82" value="Apel Google Apps Script pentru formtarea textului din document&amp;nbsp;" style="rounded=1;whiteSpace=wrap;html=1;fontFamily=Times New Roman;fillColor=#dae8fc;strokeColor=#6c8ebf;" vertex="1" parent="1">
          <mxGeometry x="440" y="830" width="120" height="60" as="geometry" />
        </mxCell>
        <mxCell id="fvNiQkrtgF-xEhkCqe55-165" style="edgeStyle=orthogonalEdgeStyle;rounded=0;orthogonalLoop=1;jettySize=auto;html=1;entryX=0.5;entryY=1;entryDx=0;entryDy=0;entryPerimeter=0;exitX=1;exitY=0.5;exitDx=0;exitDy=0;" edge="1" parent="1" source="fvNiQkrtgF-xEhkCqe55-93" target="fvNiQkrtgF-xEhkCqe55-105">
          <mxGeometry relative="1" as="geometry">
            <Array as="points">
              <mxPoint x="650" y="930" />
              <mxPoint x="194" y="930" />
            </Array>
          </mxGeometry>
        </mxCell>
        <mxCell id="fvNiQkrtgF-xEhkCqe55-172" value="true" style="edgeLabel;html=1;align=center;verticalAlign=middle;resizable=0;points=[];labelBackgroundColor=#CCE5FF;" vertex="1" connectable="0" parent="fvNiQkrtgF-xEhkCqe55-165">
          <mxGeometry x="0.1059" relative="1" as="geometry">
            <mxPoint x="-18" y="-1" as="offset" />
          </mxGeometry>
        </mxCell>
        <mxCell id="fvNiQkrtgF-xEhkCqe55-93" value="S-a apelat &lt;br&gt;cu suces?" style="rhombus;whiteSpace=wrap;html=1;fontFamily=Times New Roman;fillColor=#ffe6cc;strokeColor=#d79b00;" vertex="1" parent="1">
          <mxGeometry x="550" y="760" width="100" height="80" as="geometry" />
        </mxCell>
        <mxCell id="fvNiQkrtgF-xEhkCqe55-105" value="&lt;b&gt;Mediu de rulare Node.JS&lt;/b&gt;" style="shape=cylinder3;whiteSpace=wrap;html=1;boundedLbl=1;backgroundOutline=1;size=15;fontFamily=Times New Roman;fillColor=#d5e8d4;strokeColor=#82b366;" vertex="1" parent="1">
          <mxGeometry x="154.18" y="565" width="80" height="320" as="geometry" />
        </mxCell>
        <mxCell id="fvNiQkrtgF-xEhkCqe55-106" style="edgeStyle=orthogonalEdgeStyle;rounded=0;orthogonalLoop=1;jettySize=auto;html=1;exitX=0.5;exitY=1;exitDx=0;exitDy=0;fontFamily=Times New Roman;" edge="1" parent="1" source="fvNiQkrtgF-xEhkCqe55-4" target="fvNiQkrtgF-xEhkCqe55-4">
          <mxGeometry relative="1" as="geometry" />
        </mxCell>
        <mxCell id="fvNiQkrtgF-xEhkCqe55-130" value="" style="endArrow=classic;html=1;rounded=0;entryX=0;entryY=0.5;entryDx=0;entryDy=0;exitX=0.991;exitY=0.109;exitDx=0;exitDy=0;exitPerimeter=0;fontFamily=Times New Roman;" edge="1" parent="1" source="fvNiQkrtgF-xEhkCqe55-105" target="fvNiQkrtgF-xEhkCqe55-58">
          <mxGeometry width="50" height="50" relative="1" as="geometry">
            <mxPoint x="245" y="630" as="sourcePoint" />
            <mxPoint x="295" y="580" as="targetPoint" />
          </mxGeometry>
        </mxCell>
        <mxCell id="fvNiQkrtgF-xEhkCqe55-131" style="edgeStyle=orthogonalEdgeStyle;rounded=0;orthogonalLoop=1;jettySize=auto;html=1;exitX=0.5;exitY=1;exitDx=0;exitDy=0;fontFamily=Times New Roman;" edge="1" parent="1" source="fvNiQkrtgF-xEhkCqe55-4" target="fvNiQkrtgF-xEhkCqe55-4">
          <mxGeometry relative="1" as="geometry" />
        </mxCell>
        <mxCell id="fvNiQkrtgF-xEhkCqe55-134" style="edgeStyle=orthogonalEdgeStyle;rounded=0;orthogonalLoop=1;jettySize=auto;html=1;exitX=0.5;exitY=1;exitDx=0;exitDy=0;fontFamily=Times New Roman;" edge="1" parent="1" source="fvNiQkrtgF-xEhkCqe55-4" target="fvNiQkrtgF-xEhkCqe55-4">
          <mxGeometry relative="1" as="geometry" />
        </mxCell>
        <mxCell id="fvNiQkrtgF-xEhkCqe55-136" value="" style="shape=flexArrow;endArrow=classic;startArrow=classic;html=1;rounded=0;exitX=1;exitY=0.75;exitDx=0;exitDy=0;entryX=0.487;entryY=0.109;entryDx=0;entryDy=0;entryPerimeter=0;fontFamily=Times New Roman;" edge="1" parent="1" source="fvNiQkrtgF-xEhkCqe55-35" target="fvNiQkrtgF-xEhkCqe55-38">
          <mxGeometry width="100" height="100" relative="1" as="geometry">
            <mxPoint x="310" y="90" as="sourcePoint" />
            <mxPoint x="560" y="200" as="targetPoint" />
            <Array as="points">
              <mxPoint x="245" y="130" />
            </Array>
          </mxGeometry>
        </mxCell>
        <mxCell id="fvNiQkrtgF-xEhkCqe55-151" value="&lt;font style=&quot;font-size: 14px;&quot;&gt;Extensions&lt;/font&gt;" style="swimlane;whiteSpace=wrap;html=1;direction=west;startSize=34;fontFamily=Times New Roman;fillColor=#f8cecc;strokeColor=#b85450;" vertex="1" parent="1">
          <mxGeometry x="580" y="261.25" width="160" height="102.5" as="geometry" />
        </mxCell>
        <mxCell id="fvNiQkrtgF-xEhkCqe55-152" value="&lt;b&gt;&lt;br&gt;&lt;span style=&quot;border-color: var(--border-color); color: rgb(0, 0, 0); font-size: 16px; font-style: normal; font-variant-ligatures: normal; font-variant-caps: normal; letter-spacing: normal; orphans: 2; text-align: center; text-indent: 0px; text-transform: none; widows: 2; word-spacing: 0px; -webkit-text-stroke-width: 0px; background-color: rgb(251, 251, 251); text-decoration-thickness: initial; text-decoration-style: initial; text-decoration-color: initial;&quot;&gt;Chrome&lt;br style=&quot;border-color: var(--border-color);&quot;&gt;browser&lt;/span&gt;&lt;br&gt;&lt;/b&gt;" style="text;html=1;strokeColor=none;fillColor=none;align=center;verticalAlign=middle;whiteSpace=wrap;rounded=0;fontFamily=Times New Roman;" vertex="1" parent="fvNiQkrtgF-xEhkCqe55-151">
          <mxGeometry x="50" y="18.75" width="60" height="20.95" as="geometry" />
        </mxCell>
        <mxCell id="fvNiQkrtgF-xEhkCqe55-153" style="edgeStyle=orthogonalEdgeStyle;rounded=0;orthogonalLoop=1;jettySize=auto;html=1;exitX=1;exitY=1;exitDx=0;exitDy=0;entryX=0.886;entryY=0.988;entryDx=0;entryDy=0;entryPerimeter=0;fontFamily=Times New Roman;" edge="1" parent="1" source="fvNiQkrtgF-xEhkCqe55-151" target="fvNiQkrtgF-xEhkCqe55-151">
          <mxGeometry relative="1" as="geometry" />
        </mxCell>
        <mxCell id="fvNiQkrtgF-xEhkCqe55-159" value="" style="endArrow=none;html=1;rounded=0;entryX=1;entryY=0;entryDx=0;entryDy=0;exitX=0;exitY=0;exitDx=0;exitDy=0;fontFamily=Times New Roman;" edge="1" parent="1" source="fvNiQkrtgF-xEhkCqe55-4" target="fvNiQkrtgF-xEhkCqe55-151">
          <mxGeometry width="50" height="50" relative="1" as="geometry">
            <mxPoint x="630" y="490" as="sourcePoint" />
            <mxPoint x="680" y="440" as="targetPoint" />
          </mxGeometry>
        </mxCell>
        <mxCell id="fvNiQkrtgF-xEhkCqe55-160" value="" style="endArrow=none;html=1;rounded=0;entryX=0;entryY=0;entryDx=0;entryDy=0;exitX=1;exitY=0;exitDx=0;exitDy=0;fontFamily=Times New Roman;" edge="1" parent="1" source="fvNiQkrtgF-xEhkCqe55-4" target="fvNiQkrtgF-xEhkCqe55-151">
          <mxGeometry width="50" height="50" relative="1" as="geometry">
            <mxPoint x="630" y="490" as="sourcePoint" />
            <mxPoint x="680" y="440" as="targetPoint" />
          </mxGeometry>
        </mxCell>
        <mxCell id="fvNiQkrtgF-xEhkCqe55-161" value="" style="shape=flexArrow;endArrow=classic;startArrow=classic;html=1;rounded=0;entryX=1;entryY=0.5;entryDx=0;entryDy=0;exitX=0.875;exitY=0.5;exitDx=0;exitDy=0;exitPerimeter=0;fontFamily=Times New Roman;" edge="1" parent="1" source="fvNiQkrtgF-xEhkCqe55-38" target="fvNiQkrtgF-xEhkCqe55-151">
          <mxGeometry width="100" height="100" relative="1" as="geometry">
            <mxPoint x="610" y="510" as="sourcePoint" />
            <mxPoint x="710" y="410" as="targetPoint" />
          </mxGeometry>
        </mxCell>
        <mxCell id="fvNiQkrtgF-xEhkCqe55-162" value="" style="shape=flexArrow;endArrow=classic;startArrow=classic;html=1;rounded=0;entryX=0.5;entryY=1;entryDx=0;entryDy=0;exitX=0.5;exitY=1;exitDx=0;exitDy=0;fontFamily=Times New Roman;" edge="1" parent="1" source="fvNiQkrtgF-xEhkCqe55-151" target="fvNiQkrtgF-xEhkCqe55-16">
          <mxGeometry width="100" height="100" relative="1" as="geometry">
            <mxPoint x="610" y="510" as="sourcePoint" />
            <mxPoint x="710" y="410" as="targetPoint" />
            <Array as="points">
              <mxPoint x="660" y="210" />
              <mxPoint x="630" y="210" />
              <mxPoint x="605" y="210" />
            </Array>
          </mxGeometry>
        </mxCell>
      </root>
    </mxGraphModel>
  </diagram>
</mxfile>
